<svg width="1067" height="400" viewBox="0 0 1067 400" fill="none" xmlns="http://www.w3.org/2000/svg">
<g clip-path="url(#clip0_58_3)">
<rect x="0.286865" width="1066.67" height="400" fill="white"/>
<g opacity="0.66" clip-path="url(#clip1_58_3)">
<path d="M20.3835 -28.342H-8.12292V0.173374H20.3835V-28.342Z" stroke="#DDDDDD" stroke-width="1.5"/>
<path d="M48.89 -28.342H20.3835V0.173374H48.89V-28.342Z" stroke="#DDDDDD" stroke-width="1.5"/>
<path d="M77.3965 -28.342H48.89V0.173374H77.3965V-28.342Z" fill="#E2E7F0" fill-opacity="0.3" stroke="#DDDDDD" stroke-width="1.5"/>
<path d="M105.903 -28.342H77.3965V0.173374H105.903V-28.342Z" stroke="#DDDDDD" stroke-width="1.5"/>
<path d="M134.409 -28.342H105.903V0.173374H134.409V-28.342Z" stroke="#DDDDDD" stroke-width="1.5"/>
<path d="M162.916 -28.342H134.409V0.173374H162.916V-28.342Z" stroke="#DDDDDD" stroke-width="1.5"/>
<path d="M191.422 -28.342H162.916V0.173374H191.422V-28.342Z" stroke="#DDDDDD" stroke-width="1.5"/>
<path d="M219.929 -28.342H191.422V0.173374H219.929V-28.342Z" stroke="#DDDDDD" stroke-width="1.5"/>
<path d="M248.435 -28.342H219.929V0.173374H248.435V-28.342Z" fill="#E2E7F0" fill-opacity="0.3" stroke="#DDDDDD" stroke-width="1.5"/>
<path d="M276.942 -28.342H248.435V0.173374H276.942V-28.342Z" stroke="#DDDDDD" stroke-width="1.5"/>
<path d="M305.448 -28.342H276.942V0.173374H305.448V-28.342Z" stroke="#DDDDDD" stroke-width="1.5"/>
<path d="M333.955 -28.342H305.448V0.173374H333.955V-28.342Z" stroke="#DDDDDD" stroke-width="1.5"/>
<path d="M619.019 -28.342H590.513V0.173374H619.019V-28.342Z" stroke="#DDDDDD" stroke-width="1.5"/>
<path d="M647.526 -28.342H619.019V0.173374H647.526V-28.342Z" stroke="#DDDDDD" stroke-width="1.5"/>
<path d="M676.032 -28.342H647.526V0.173374H676.032V-28.342Z" stroke="#DDDDDD" stroke-width="1.5"/>
<path d="M704.539 -28.342H676.032V0.173374H704.539V-28.342Z" stroke="#DDDDDD" stroke-width="1.5"/>
<path d="M733.045 -28.342H704.539V0.173374H733.045V-28.342Z" fill="#E2E7F0" fill-opacity="0.3" stroke="#DDDDDD" stroke-width="1.5"/>
<path d="M761.552 -28.342H733.045V0.173374H761.552V-28.342Z" stroke="#DDDDDD" stroke-width="1.5"/>
<path d="M790.058 -28.342H761.552V0.173374H790.058V-28.342Z" stroke="#DDDDDD" stroke-width="1.5"/>
<path d="M818.565 -28.342H790.058V0.173374H818.565V-28.342Z" fill="#E2E7F0" fill-opacity="0.3" stroke="#DDDDDD" stroke-width="1.5"/>
<path d="M847.071 -28.342H818.565V0.173374H847.071V-28.342Z" stroke="#DDDDDD" stroke-width="1.5"/>
<path d="M875.578 -28.342H847.071V0.173374H875.578V-28.342Z" stroke="#DDDDDD" stroke-width="1.5"/>
<path d="M904.084 -28.342H875.578V0.173374H904.084V-28.342Z" stroke="#DDDDDD" stroke-width="1.5"/>
<path d="M932.591 -28.342H904.084V0.173374H932.591V-28.342Z" stroke="#DDDDDD" stroke-width="1.5"/>
<path d="M961.097 -28.342H932.591V0.173374H961.097V-28.342Z" stroke="#DDDDDD" stroke-width="1.5"/>
<path d="M989.604 -28.342H961.097V0.173374H989.604V-28.342Z" stroke="#DDDDDD" stroke-width="1.5"/>
<path d="M1018.11 -28.342H989.604V0.173374H1018.11V-28.342Z" stroke="#DDDDDD" stroke-width="1.5"/>
<path d="M1046.62 -28.342H1018.11V0.173374H1046.62V-28.342Z" stroke="#DDDDDD" stroke-width="1.5"/>
<path d="M1075.12 -28.342H1046.62V0.173374H1075.12V-28.342Z" fill="#E2E7F0" fill-opacity="0.3" stroke="#DDDDDD" stroke-width="1.5"/>
<path d="M20.3835 0.173374H-8.12292V28.6887H20.3835V0.173374Z" stroke="#DDDDDD" stroke-width="1.5"/>
<path d="M48.89 0.173374H20.3835V28.6887H48.89V0.173374Z" stroke="#DDDDDD" stroke-width="1.5"/>
<path d="M77.3965 0.173374H48.89V28.6887H77.3965V0.173374Z" stroke="#DDDDDD" stroke-width="1.5"/>
<path d="M105.903 0.173374H77.3965V28.6887H105.903V0.173374Z" stroke="#DDDDDD" stroke-width="1.5"/>
<path d="M134.409 0.173374H105.903V28.6887H134.409V0.173374Z" stroke="#DDDDDD" stroke-width="1.5"/>
<path d="M162.916 0.173374H134.409V28.6887H162.916V0.173374Z" stroke="#DDDDDD" stroke-width="1.5"/>
<path d="M191.422 0.173374H162.916V28.6887H191.422V0.173374Z" fill="#E2E7F0" fill-opacity="0.3" stroke="#DDDDDD" stroke-width="1.5"/>
<path d="M219.929 0.173374H191.422V28.6887H219.929V0.173374Z" stroke="#DDDDDD" stroke-width="1.5"/>
<path d="M333.955 0.173374H305.448V28.6887H333.955V0.173374Z" stroke="#DDDDDD" stroke-width="1.5"/>
<path d="M362.461 0.173374H333.955V28.6887H362.461V0.173374Z" stroke="#DDDDDD" stroke-width="1.5"/>
<path d="M390.968 0.173374H362.461V28.6887H390.968V0.173374Z" stroke="#DDDDDD" stroke-width="1.5"/>
<path d="M419.474 0.173374H390.968V28.6887H419.474V0.173374Z" stroke="#DDDDDD" stroke-width="1.5"/>
<path d="M447.981 0.173374H419.474V28.6887H447.981V0.173374Z" stroke="#DDDDDD" stroke-width="1.5"/>
<path d="M476.487 0.173374H447.981V28.6887H476.487V0.173374Z" stroke="#DDDDDD" stroke-width="1.5"/>
<path d="M904.084 0.173374H875.578V28.6887H904.084V0.173374Z" stroke="#DDDDDD" stroke-width="1.5"/>
<path d="M932.591 0.173374H904.084V28.6887H932.591V0.173374Z" fill="#E2E7F0" fill-opacity="0.3" stroke="#DDDDDD" stroke-width="1.5"/>
<path d="M961.097 0.173374H932.591V28.6887H961.097V0.173374Z" stroke="#DDDDDD" stroke-width="1.5"/>
<path d="M989.604 0.173374H961.097V28.6887H989.604V0.173374Z" stroke="#DDDDDD" stroke-width="1.5"/>
<path d="M1018.11 0.173374H989.604V28.6887H1018.11V0.173374Z" stroke="#DDDDDD" stroke-width="1.5"/>
<path d="M1046.62 0.173374H1018.11V28.6887H1046.62V0.173374Z" stroke="#DDDDDD" stroke-width="1.5"/>
<path d="M1075.12 0.173374H1046.62V28.6887H1075.12V0.173374Z" stroke="#DDDDDD" stroke-width="1.5"/>
<path d="M20.3835 28.6887H-8.12292V57.204H20.3835V28.6887Z" stroke="#DDDDDD" stroke-width="1.5"/>
<path d="M48.89 28.6887H20.3835V57.204H48.89V28.6887Z" stroke="#DDDDDD" stroke-width="1.5"/>
<path d="M77.3965 28.6887H48.89V57.204H77.3965V28.6887Z" stroke="#DDDDDD" stroke-width="1.5"/>
<path d="M105.903 28.6887H77.3965V57.204H105.903V28.6887Z" stroke="#DDDDDD" stroke-width="1.5"/>
<path d="M134.409 28.6887H105.903V57.204H134.409V28.6887Z" stroke="#DDDDDD" stroke-width="1.5"/>
<path d="M162.916 28.6887H134.409V57.204H162.916V28.6887Z" stroke="#DDDDDD" stroke-width="1.5"/>
<path d="M333.955 28.6887H305.448V57.204H333.955V28.6887Z" stroke="#DDDDDD" stroke-width="1.5"/>
<path d="M619.019 28.6887H590.513V57.204H619.019V28.6887Z" stroke="#DDDDDD" stroke-width="1.5"/>
<path d="M647.526 28.6887H619.019V57.204H647.526V28.6887Z" stroke="#DDDDDD" stroke-width="1.5"/>
<path d="M676.032 28.6887H647.526V57.204H676.032V28.6887Z" stroke="#DDDDDD" stroke-width="1.5"/>
<path d="M704.539 28.6887H676.032V57.204H704.539V28.6887Z" stroke="#DDDDDD" stroke-width="1.5"/>
<path d="M733.045 28.6887H704.539V57.204H733.045V28.6887Z" stroke="#DDDDDD" stroke-width="1.5"/>
<path d="M761.552 28.6887H733.045V57.204H761.552V28.6887Z" stroke="#DDDDDD" stroke-width="1.5"/>
<path d="M790.058 28.6887H761.552V57.204H790.058V28.6887Z" stroke="#DDDDDD" stroke-width="1.5"/>
<path d="M961.097 28.6887H932.591V57.204H961.097V28.6887Z" stroke="#DDDDDD" stroke-width="1.5"/>
<path d="M989.604 28.6887H961.097V57.204H989.604V28.6887Z" stroke="#DDDDDD" stroke-width="1.5"/>
<path d="M1018.11 28.6887H989.604V57.204H1018.11V28.6887Z" stroke="#DDDDDD" stroke-width="1.5"/>
<path d="M1046.62 28.6887H1018.11V57.204H1046.62V28.6887Z" stroke="#DDDDDD" stroke-width="1.5"/>
<path d="M1075.12 28.6887H1046.62V57.204H1075.12V28.6887Z" stroke="#DDDDDD" stroke-width="1.5"/>
<path d="M20.3835 57.204H-8.12292V85.7193H20.3835V57.204Z" stroke="#DDDDDD" stroke-width="1.5"/>
<path d="M48.89 57.204H20.3835V85.7193H48.89V57.204Z" stroke="#DDDDDD" stroke-width="1.5"/>
<path d="M77.3965 57.204H48.89V85.7193H77.3965V57.204Z" stroke="#DDDDDD" stroke-width="1.5"/>
<path d="M105.903 57.204H77.3965V85.7193H105.903V57.204Z" stroke="#DDDDDD" stroke-width="1.5"/>
<path d="M134.409 57.204H105.903V85.7193H134.409V57.204Z" stroke="#DDDDDD" stroke-width="1.5"/>
<path d="M162.916 57.204H134.409V85.7193H162.916V57.204Z" stroke="#DDDDDD" stroke-width="1.5"/>
<path d="M191.422 57.204H162.916V85.7193H191.422V57.204Z" stroke="#DDDDDD" stroke-width="1.5"/>
<path d="M219.929 57.204H191.422V85.7193H219.929V57.204Z" stroke="#DDDDDD" stroke-width="1.5"/>
<path d="M790.058 57.204H761.552V85.7193H790.058V57.204Z" stroke="#DDDDDD" stroke-width="1.5"/>
<path d="M847.071 57.204H818.565V85.7193H847.071V57.204Z" fill="#E2E7F0" fill-opacity="0.3" stroke="#DDDDDD" stroke-width="1.5"/>
<path d="M875.578 57.204H847.071V85.7193H875.578V57.204Z" stroke="#DDDDDD" stroke-width="1.5"/>
<path d="M904.084 57.204H875.578V85.7193H904.084V57.204Z" stroke="#DDDDDD" stroke-width="1.5"/>
<path d="M932.591 57.204H904.084V85.7193H932.591V57.204Z" stroke="#DDDDDD" stroke-width="1.5"/>
<path d="M961.097 57.204H932.591V85.7193H961.097V57.204Z" stroke="#DDDDDD" stroke-width="1.5"/>
<path d="M989.604 57.204H961.097V85.7193H989.604V57.204Z" fill="#E2E7F0" fill-opacity="0.3" stroke="#DDDDDD" stroke-width="1.5"/>
<path d="M1018.11 57.204H989.604V85.7193H1018.11V57.204Z" stroke="#DDDDDD" stroke-width="1.5"/>
<path d="M1046.62 57.204H1018.11V85.7193H1046.62V57.204Z" stroke="#DDDDDD" stroke-width="1.5"/>
<path d="M1075.12 57.204H1046.62V85.7193H1075.12V57.204Z" fill="#E2E7F0" fill-opacity="0.3" stroke="#DDDDDD" stroke-width="1.5"/>
<path d="M20.3835 85.7193H-8.12292V114.235H20.3835V85.7193Z" stroke="#DDDDDD" stroke-width="1.5"/>
<path d="M48.89 85.7193H20.3835V114.235H48.89V85.7193Z" fill="#E2E7F0" fill-opacity="0.3" stroke="#DDDDDD" stroke-width="1.5"/>
<path d="M77.3965 85.7193H48.89V114.235H77.3965V85.7193Z" stroke="#DDDDDD" stroke-width="1.5"/>
<path d="M191.422 85.7193H162.916V114.235H191.422V85.7193Z" fill="#E2E7F0" fill-opacity="0.3" stroke="#DDDDDD" stroke-width="1.5"/>
<path d="M219.929 85.7193H191.422V114.235H219.929V85.7193Z" stroke="#DDDDDD" stroke-width="1.5"/>
<path d="M276.942 85.7193H248.435V114.235H276.942V85.7193Z" stroke="#DDDDDD" stroke-width="1.5"/>
<path d="M790.058 85.7193H761.552V114.235H790.058V85.7193Z" stroke="#DDDDDD" stroke-width="1.5"/>
<path d="M818.565 85.7193H790.058V114.235H818.565V85.7193Z" stroke="#DDDDDD" stroke-width="1.5"/>
<path d="M904.084 85.7193H875.578V114.235H904.084V85.7193Z" stroke="#DDDDDD" stroke-width="1.5"/>
<path d="M932.591 85.7193H904.084V114.235H932.591V85.7193Z" stroke="#DDDDDD" stroke-width="1.5"/>
<path d="M961.097 85.7193H932.591V114.235H961.097V85.7193Z" stroke="#DDDDDD" stroke-width="1.5"/>
<path d="M1075.12 85.7193H1046.62V114.235H1075.12V85.7193Z" stroke="#DDDDDD" stroke-width="1.5"/>
<path d="M20.3835 114.235H-8.12292V142.75H20.3835V114.235Z" stroke="#DDDDDD" stroke-width="1.5"/>
<path d="M48.89 114.235H20.3835V142.75H48.89V114.235Z" stroke="#DDDDDD" stroke-width="1.5"/>
<path d="M77.3965 114.235H48.89V142.75H77.3965V114.235Z" stroke="#DDDDDD" stroke-width="1.5"/>
<path d="M105.903 114.235H77.3965V142.75H105.903V114.235Z" stroke="#DDDDDD" stroke-width="1.5"/>
<path d="M134.409 114.235H105.903V142.75H134.409V114.235Z" stroke="#DDDDDD" stroke-width="1.5"/>
<path d="M162.916 114.235H134.409V142.75H162.916V114.235Z" stroke="#DDDDDD" stroke-width="1.5"/>
<path d="M305.448 114.235H276.942V142.75H305.448V114.235Z" stroke="#DDDDDD" stroke-width="1.5"/>
<path d="M333.955 114.235H305.448V142.75H333.955V114.235Z" stroke="#DDDDDD" stroke-width="1.5"/>
<path d="M619.019 114.235H590.513V142.75H619.019V114.235Z" stroke="#DDDDDD" stroke-width="1.5"/>
<path d="M647.526 114.235H619.019V142.75H647.526V114.235Z" stroke="#DDDDDD" stroke-width="1.5"/>
<path d="M676.032 114.235H647.526V142.75H676.032V114.235Z" stroke="#DDDDDD" stroke-width="1.5"/>
<path d="M704.539 114.235H676.032V142.75H704.539V114.235Z" stroke="#DDDDDD" stroke-width="1.5"/>
<path d="M733.045 114.235H704.539V142.75H733.045V114.235Z" stroke="#DDDDDD" stroke-width="1.5"/>
<path d="M761.552 114.235H733.045V142.75H761.552V114.235Z" stroke="#DDDDDD" stroke-width="1.5"/>
<path d="M818.565 114.235H790.058V142.75H818.565V114.235Z" stroke="#DDDDDD" stroke-width="1.5"/>
<path d="M847.071 114.235H818.565V142.75H847.071V114.235Z" fill="#E2E7F0" fill-opacity="0.3" stroke="#DDDDDD" stroke-width="1.5"/>
<path d="M961.097 114.235H932.591V142.75H961.097V114.235Z" stroke="#DDDDDD" stroke-width="1.5"/>
<path d="M989.604 114.235H961.097V142.75H989.604V114.235Z" stroke="#DDDDDD" stroke-width="1.5"/>
<path d="M1018.11 114.235H989.604V142.75H1018.11V114.235Z" stroke="#DDDDDD" stroke-width="1.5"/>
<path d="M1046.62 114.235H1018.11V142.75H1046.62V114.235Z" stroke="#DDDDDD" stroke-width="1.5"/>
<path d="M1075.12 114.235H1046.62V142.75H1075.12V114.235Z" stroke="#DDDDDD" stroke-width="1.5"/>
<path d="M20.3835 142.75H-8.12292V171.265H20.3835V142.75Z" stroke="#DDDDDD" stroke-width="1.5"/>
<path d="M48.89 142.75H20.3835V171.265H48.89V142.75Z" stroke="#DDDDDD" stroke-width="1.5"/>
<path d="M77.3965 142.75H48.89V171.265H77.3965V142.75Z" stroke="#DDDDDD" stroke-width="1.5"/>
<path d="M105.903 142.75H77.3965V171.265H105.903V142.75Z" stroke="#DDDDDD" stroke-width="1.5"/>
<path d="M134.409 142.75H105.903V171.265H134.409V142.75Z" stroke="#DDDDDD" stroke-width="1.5"/>
<path d="M162.916 142.75H134.409V171.265H162.916V142.75Z" stroke="#DDDDDD" stroke-width="1.5"/>
<path d="M191.422 142.75H162.916V171.265H191.422V142.75Z" stroke="#DDDDDD" stroke-width="1.5"/>
<path d="M219.929 142.75H191.422V171.265H219.929V142.75Z" stroke="#DDDDDD" stroke-width="1.5"/>
<path d="M875.578 142.75H847.071V171.265H875.578V142.75Z" stroke="#DDDDDD" stroke-width="1.5"/>
<path d="M904.084 142.75H875.578V171.265H904.084V142.75Z" stroke="#DDDDDD" stroke-width="1.5"/>
<path d="M932.591 142.75H904.084V171.265H932.591V142.75Z" stroke="#DDDDDD" stroke-width="1.5"/>
<path d="M961.097 142.75H932.591V171.265H961.097V142.75Z" stroke="#DDDDDD" stroke-width="1.5"/>
<path d="M989.604 142.75H961.097V171.265H989.604V142.75Z" fill="#E2E7F0" fill-opacity="0.3" stroke="#DDDDDD" stroke-width="1.5"/>
<path d="M1018.11 142.75H989.604V171.265H1018.11V142.75Z" stroke="#DDDDDD" stroke-width="1.5"/>
<path d="M1046.62 142.75H1018.11V171.265H1046.62V142.75Z" stroke="#DDDDDD" stroke-width="1.5"/>
<path d="M1075.12 142.75H1046.62V171.265H1075.12V142.75Z" stroke="#DDDDDD" stroke-width="1.5"/>
<path d="M20.3835 171.265H-8.12292V199.781H20.3835V171.265Z" fill="#E2E7F0" fill-opacity="0.3" stroke="#DDDDDD" stroke-width="1.5"/>
<path d="M48.89 171.265H20.3835V199.781H48.89V171.265Z" stroke="#DDDDDD" stroke-width="1.5"/>
<path d="M77.3965 171.265H48.89V199.781H77.3965V171.265Z" stroke="#DDDDDD" stroke-width="1.5"/>
<path d="M191.422 171.265H162.916V199.781H191.422V171.265Z" fill="#E2E7F0" fill-opacity="0.3" stroke="#DDDDDD" stroke-width="1.5"/>
<path d="M219.929 171.265H191.422V199.781H219.929V171.265Z" stroke="#DDDDDD" stroke-width="1.5"/>
<path d="M276.942 171.265H248.435V199.781H276.942V171.265Z" stroke="#DDDDDD" stroke-width="1.5"/>
<path d="M305.448 171.265H276.942V199.781H305.448V171.265Z" stroke="#DDDDDD" stroke-width="1.5"/>
<path d="M847.071 171.265H818.565V199.781H847.071V171.265Z" stroke="#DDDDDD" stroke-width="1.5"/>
<path d="M875.578 171.265H847.071V199.781H875.578V171.265Z" fill="#E2E7F0" fill-opacity="0.3" stroke="#DDDDDD" stroke-width="1.5"/>
<path d="M904.084 171.265H875.578V199.781H904.084V171.265Z" stroke="#DDDDDD" stroke-width="1.5"/>
<path d="M932.591 171.265H904.084V199.781H932.591V171.265Z" stroke="#DDDDDD" stroke-width="1.5"/>
<path d="M961.097 171.265H932.591V199.781H961.097V171.265Z" stroke="#DDDDDD" stroke-width="1.5"/>
<path d="M1075.12 171.265H1046.62V199.781H1075.12V171.265Z" stroke="#DDDDDD" stroke-width="1.5"/>
<path d="M20.3835 199.781H-8.12292V228.296H20.3835V199.781Z" stroke="#DDDDDD" stroke-width="1.5"/>
<path d="M48.89 199.781H20.3835V228.296H48.89V199.781Z" stroke="#DDDDDD" stroke-width="1.5"/>
<path d="M77.3965 199.781H48.89V228.296H77.3965V199.781Z" stroke="#DDDDDD" stroke-width="1.5"/>
<path d="M105.903 199.781H77.3965V228.296H105.903V199.781Z" stroke="#DDDDDD" stroke-width="1.5"/>
<path d="M134.409 199.781H105.903V228.296H134.409V199.781Z" stroke="#DDDDDD" stroke-width="1.5"/>
<path d="M162.916 199.781H134.409V228.296H162.916V199.781Z" fill="#E2E7F0" fill-opacity="0.3" stroke="#DDDDDD" stroke-width="1.5"/>
<path d="M305.448 199.781H276.942V228.296H305.448V199.781Z" stroke="#DDDDDD" stroke-width="1.5"/>
<path d="M333.955 199.781H305.448V228.296H333.955V199.781Z" stroke="#DDDDDD" stroke-width="1.5"/>
<path d="M619.019 199.781H590.513V228.296H619.019V199.781Z" stroke="#DDDDDD" stroke-width="1.5"/>
<path d="M647.526 199.781H619.019V228.296H647.526V199.781Z" stroke="#DDDDDD" stroke-width="1.5"/>
<path d="M676.032 199.781H647.526V228.296H676.032V199.781Z" stroke="#DDDDDD" stroke-width="1.5"/>
<path d="M704.539 199.781H676.032V228.296H704.539V199.781Z" stroke="#DDDDDD" stroke-width="1.5"/>
<path d="M733.045 199.781H704.539V228.296H733.045V199.781Z" stroke="#DDDDDD" stroke-width="1.5"/>
<path d="M761.552 199.781H733.045V228.296H761.552V199.781Z" stroke="#DDDDDD" stroke-width="1.5"/>
<path d="M790.058 199.781H761.552V228.296H790.058V199.781Z" stroke="#DDDDDD" stroke-width="1.5"/>
<path d="M818.565 199.781H790.058V228.296H818.565V199.781Z" stroke="#DDDDDD" stroke-width="1.5"/>
<path d="M989.604 199.781H961.097V228.296H989.604V199.781Z" stroke="#DDDDDD" stroke-width="1.5"/>
<path d="M1018.11 199.781H989.604V228.296H1018.11V199.781Z" stroke="#DDDDDD" stroke-width="1.5"/>
<path d="M1046.62 199.781H1018.11V228.296H1046.62V199.781Z" stroke="#DDDDDD" stroke-width="1.5"/>
<path d="M1075.12 199.781H1046.62V228.296H1075.12V199.781Z" stroke="#DDDDDD" stroke-width="1.5"/>
<path d="M20.3835 228.296H-8.12292V256.811H20.3835V228.296Z" stroke="#DDDDDD" stroke-width="1.5"/>
<path d="M48.89 228.296H20.3835V256.811H48.89V228.296Z" stroke="#DDDDDD" stroke-width="1.5"/>
<path d="M77.3965 228.296H48.89V256.811H77.3965V228.296Z" stroke="#DDDDDD" stroke-width="1.5"/>
<path d="M105.903 228.296H77.3965V256.811H105.903V228.296Z" fill="#E2E7F0" fill-opacity="0.3" stroke="#DDDDDD" stroke-width="1.5"/>
<path d="M134.409 228.296H105.903V256.811H134.409V228.296Z" stroke="#DDDDDD" stroke-width="1.5"/>
<path d="M162.916 228.296H134.409V256.811H162.916V228.296Z" stroke="#DDDDDD" stroke-width="1.5"/>
<path d="M191.422 228.296H162.916V256.811H191.422V228.296Z" stroke="#DDDDDD" stroke-width="1.5"/>
<path d="M219.929 228.296H191.422V256.811H219.929V228.296Z" stroke="#DDDDDD" stroke-width="1.5"/>
<path d="M305.448 228.296H276.942V256.811H305.448V228.296Z" stroke="#DDDDDD" stroke-width="1.5"/>
<path d="M818.565 228.296H790.058V256.811H818.565V228.296Z" stroke="#DDDDDD" stroke-width="1.5"/>
<path d="M847.071 228.296H818.565V256.811H847.071V228.296Z" stroke="#DDDDDD" stroke-width="1.5"/>
<path d="M989.604 228.296H961.097V256.811H989.604V228.296Z" stroke="#DDDDDD" stroke-width="1.5"/>
<path d="M1018.11 228.296H989.604V256.811H1018.11V228.296Z" stroke="#DDDDDD" stroke-width="1.5"/>
<path d="M1046.62 228.296H1018.11V256.811H1046.62V228.296Z" fill="#E2E7F0" fill-opacity="0.3" stroke="#DDDDDD" stroke-width="1.5"/>
<path d="M1075.12 228.296H1046.62V256.811H1075.12V228.296Z" stroke="#DDDDDD" stroke-width="1.5"/>
<path d="M20.3835 256.811H-8.12292V285.327H20.3835V256.811Z" stroke="#DDDDDD" stroke-width="1.5"/>
<path d="M105.903 256.811H77.3965V285.327H105.903V256.811Z" stroke="#DDDDDD" stroke-width="1.5"/>
<path d="M191.422 256.811H162.916V285.327H191.422V256.811Z" stroke="#DDDDDD" stroke-width="1.5"/>
<path d="M219.929 256.811H191.422V285.327H219.929V256.811Z" fill="#E2E7F0" fill-opacity="0.3" stroke="#DDDDDD" stroke-width="1.5"/>
<path d="M333.955 256.811H305.448V285.327H333.955V256.811Z" stroke="#DDDDDD" stroke-width="1.5"/>
<path d="M362.461 256.811H333.955V285.327H362.461V256.811Z" stroke="#DDDDDD" stroke-width="1.5"/>
<path d="M390.968 256.811H362.461V285.327H390.968V256.811Z" stroke="#DDDDDD" stroke-width="1.5"/>
<path d="M419.474 256.811H390.968V285.327H419.474V256.811Z" fill="#E2E7F0" fill-opacity="0.3" stroke="#DDDDDD" stroke-width="1.5"/>
<path d="M447.981 256.811H419.474V285.327H447.981V256.811Z" stroke="#DDDDDD" stroke-width="1.5"/>
<path d="M476.487 256.811H447.981V285.327H476.487V256.811Z" stroke="#DDDDDD" stroke-width="1.5"/>
<path d="M790.058 256.811H761.552V285.327H790.058V256.811Z" stroke="#DDDDDD" stroke-width="1.5"/>
<path opacity="0.99" d="M818.565 256.811H790.058V285.327H818.565V256.811Z" stroke="#DDDDDD" stroke-width="1.5"/>
<path d="M904.084 256.811H875.578V285.327H904.084V256.811Z" stroke="#DDDDDD" stroke-width="1.5"/>
<path d="M932.591 256.811H904.084V285.327H932.591V256.811Z" stroke="#DDDDDD" stroke-width="1.5"/>
<path d="M961.097 256.811H932.591V285.327H961.097V256.811Z" stroke="#DDDDDD" stroke-width="1.5"/>
<path d="M1075.12 256.811H1046.62V285.327H1075.12V256.811Z" stroke="#DDDDDD" stroke-width="1.5"/>
<path d="M20.3835 285.327H-8.12292V313.842H20.3835V285.327Z" stroke="#DDDDDD" stroke-width="1.5"/>
<path d="M48.89 285.327H20.3835V313.842H48.89V285.327Z" stroke="#DDDDDD" stroke-width="1.5"/>
<path d="M77.3965 285.327H48.89V313.842H77.3965V285.327Z" stroke="#DDDDDD" stroke-width="1.5"/>
<path d="M105.903 285.327H77.3965V313.842H105.903V285.327Z" stroke="#DDDDDD" stroke-width="1.5"/>
<path d="M134.409 285.327H105.903V313.842H134.409V285.327Z" stroke="#DDDDDD" stroke-width="1.5"/>
<path d="M419.474 285.327H390.968V313.842H419.474V285.327Z" stroke="#DDDDDD" stroke-width="1.5"/>
<path d="M447.981 285.327H419.474V313.842H447.981V285.327Z" stroke="#DDDDDD" stroke-width="1.5"/>
<path d="M476.487 285.327H447.981V313.842H476.487V285.327Z" stroke="#DDDDDD" stroke-width="1.5"/>
<path d="M676.032 285.327H647.526V313.842H676.032V285.327Z" stroke="#DDDDDD" stroke-width="1.5"/>
<path d="M704.539 285.327H676.032V313.842H704.539V285.327Z" stroke="#DDDDDD" stroke-width="1.5"/>
<path d="M733.045 285.327H704.539V313.842H733.045V285.327Z" stroke="#DDDDDD" stroke-width="1.5"/>
<path d="M761.552 285.327H733.045V313.842H761.552V285.327Z" stroke="#DDDDDD" stroke-width="1.5"/>
<path d="M790.058 285.327H761.552V313.842H790.058V285.327Z" fill="#E2E7F0" fill-opacity="0.3" stroke="#DDDDDD" stroke-width="1.5"/>
<path d="M818.565 285.327H790.058V313.842H818.565V285.327Z" stroke="#DDDDDD" stroke-width="1.5"/>
<path d="M847.071 285.327H818.565V313.842H847.071V285.327Z" stroke="#DDDDDD" stroke-width="1.5"/>
<path d="M904.084 285.327H875.578V313.842H904.084V285.327Z" stroke="#DDDDDD" stroke-width="1.5"/>
<path d="M932.591 285.327H904.084V313.842H932.591V285.327Z" stroke="#DDDDDD" stroke-width="1.5"/>
<path d="M961.097 285.327H932.591V313.842H961.097V285.327Z" stroke="#DDDDDD" stroke-width="1.5"/>
<path d="M989.604 285.327H961.097V313.842H989.604V285.327Z" fill="#E2E7F0" fill-opacity="0.3" stroke="#DDDDDD" stroke-width="1.5"/>
<path d="M1018.11 285.327H989.604V313.842H1018.11V285.327Z" stroke="#DDDDDD" stroke-width="1.5"/>
<path d="M1046.62 285.327H1018.11V313.842H1046.62V285.327Z" stroke="#DDDDDD" stroke-width="1.5"/>
<path d="M1075.12 285.327H1046.62V313.842H1075.12V285.327Z" stroke="#DDDDDD" stroke-width="1.5"/>
<path d="M20.3835 313.842H-8.12292V342.357H20.3835V313.842Z" stroke="#DDDDDD" stroke-width="1.5"/>
<path d="M48.89 313.842H20.3835V342.357H48.89V313.842Z" stroke="#DDDDDD" stroke-width="1.5"/>
<path d="M77.3965 313.842H48.89V342.357H77.3965V313.842Z" fill="#E2E7F0" fill-opacity="0.3" stroke="#DDDDDD" stroke-width="1.5"/>
<path d="M105.903 313.842H77.3965V342.357H105.903V313.842Z" stroke="#DDDDDD" stroke-width="1.5"/>
<path d="M134.409 313.842H105.903V342.357H134.409V313.842Z" stroke="#DDDDDD" stroke-width="1.5"/>
<path d="M162.916 313.842H134.409V342.357H162.916V313.842Z" stroke="#DDDDDD" stroke-width="1.5"/>
<path d="M191.422 313.842H162.916V342.357H191.422V313.842Z" stroke="#DDDDDD" stroke-width="1.5"/>
<path d="M219.929 313.842H191.422V342.357H219.929V313.842Z" stroke="#DDDDDD" stroke-width="1.5"/>
<path d="M248.435 313.842H219.929V342.357H248.435V313.842Z" stroke="#DDDDDD" stroke-width="1.5"/>
<path d="M276.942 313.842H248.435V342.357H276.942V313.842Z" stroke="#DDDDDD" stroke-width="1.5"/>
<path d="M305.448 313.842H276.942V342.357H305.448V313.842Z" stroke="#DDDDDD" stroke-width="1.5"/>
<path d="M333.955 313.842H305.448V342.357H333.955V313.842Z" stroke="#DDDDDD" stroke-width="1.5"/>
<path d="M362.461 313.842H333.955V342.357H362.461V313.842Z" fill="#E2E7F0" fill-opacity="0.3" stroke="#DDDDDD" stroke-width="1.5"/>
<path d="M619.019 313.842H590.513V342.357H619.019V313.842Z" stroke="#DDDDDD" stroke-width="1.5"/>
<path d="M647.526 313.842H619.019V342.357H647.526V313.842Z" stroke="#DDDDDD" stroke-width="1.5"/>
<path d="M676.032 313.842H647.526V342.357H676.032V313.842Z" stroke="#DDDDDD" stroke-width="1.5"/>
<path d="M704.539 313.842H676.032V342.357H704.539V313.842Z" stroke="#DDDDDD" stroke-width="1.5"/>
<path d="M733.045 313.842H704.539V342.357H733.045V313.842Z" fill="#E2E7F0" fill-opacity="0.3" stroke="#DDDDDD" stroke-width="1.5"/>
<path d="M761.552 313.842H733.045V342.357H761.552V313.842Z" stroke="#DDDDDD" stroke-width="1.5"/>
<path d="M790.058 313.842H761.552V342.357H790.058V313.842Z" stroke="#DDDDDD" stroke-width="1.5"/>
<path d="M818.565 313.842H790.058V342.357H818.565V313.842Z" stroke="#DDDDDD" stroke-width="1.5"/>
<path d="M847.071 313.842H818.565V342.357H847.071V313.842Z" stroke="#DDDDDD" stroke-width="1.5"/>
<path d="M875.578 313.842H847.071V342.357H875.578V313.842Z" stroke="#DDDDDD" stroke-width="1.5"/>
<path d="M904.084 313.842H875.578V342.357H904.084V313.842Z" stroke="#DDDDDD" stroke-width="1.5"/>
<path d="M932.591 313.842H904.084V342.357H932.591V313.842Z" stroke="#DDDDDD" stroke-width="1.5"/>
<path d="M961.097 313.842H932.591V342.357H961.097V313.842Z" stroke="#DDDDDD" stroke-width="1.5"/>
<path d="M989.604 313.842H961.097V342.357H989.604V313.842Z" stroke="#DDDDDD" stroke-width="1.5"/>
<path d="M1018.11 313.842H989.604V342.357H1018.11V313.842Z" stroke="#DDDDDD" stroke-width="1.5"/>
<path d="M1046.62 313.842H1018.11V342.357H1046.62V313.842Z" stroke="#DDDDDD" stroke-width="1.5"/>
<path d="M1075.12 313.842H1046.62V342.357H1075.12V313.842Z" stroke="#DDDDDD" stroke-width="1.5"/>
<path d="M20.3835 342.357H-8.12292V370.873H20.3835V342.357Z" stroke="#DDDDDD" stroke-width="1.5"/>
<path d="M48.89 342.357H20.3835V370.873H48.89V342.357Z" stroke="#DDDDDD" stroke-width="1.5"/>
<path d="M77.3965 342.357H48.89V370.873H77.3965V342.357Z" stroke="#DDDDDD" stroke-width="1.5"/>
<path d="M105.903 342.357H77.3965V370.873H105.903V342.357Z" stroke="#DDDDDD" stroke-width="1.5"/>
<path d="M134.409 342.357H105.903V370.873H134.409V342.357Z" stroke="#DDDDDD" stroke-width="1.5"/>
<path d="M162.916 342.357H134.409V370.873H162.916V342.357Z" fill="#E2E7F0" fill-opacity="0.3" stroke="#DDDDDD" stroke-width="1.5"/>
<path d="M305.448 342.357H276.942V370.873H305.448V342.357Z" stroke="#DDDDDD" stroke-width="1.5"/>
<path d="M333.955 342.357H305.448V370.873H333.955V342.357Z" stroke="#DDDDDD" stroke-width="1.5"/>
<path d="M619.019 342.357H590.513V370.873H619.019V342.357Z" stroke="#DDDDDD" stroke-width="1.5"/>
<path d="M647.526 342.357H619.019V370.873H647.526V342.357Z" stroke="#DDDDDD" stroke-width="1.5"/>
<path d="M676.032 342.357H647.526V370.873H676.032V342.357Z" stroke="#DDDDDD" stroke-width="1.5"/>
<path d="M704.539 342.357H676.032V370.873H704.539V342.357Z" stroke="#DDDDDD" stroke-width="1.5"/>
<path d="M733.045 342.357H704.539V370.873H733.045V342.357Z" stroke="#DDDDDD" stroke-width="1.5"/>
<path d="M761.552 342.357H733.045V370.873H761.552V342.357Z" stroke="#DDDDDD" stroke-width="1.5"/>
<path d="M790.058 342.357H761.552V370.873H790.058V342.357Z" stroke="#DDDDDD" stroke-width="1.5"/>
<path d="M818.565 342.357H790.058V370.873H818.565V342.357Z" stroke="#DDDDDD" stroke-width="1.5"/>
<path d="M989.604 342.357H961.097V370.873H989.604V342.357Z" stroke="#DDDDDD" stroke-width="1.5"/>
<path d="M1018.11 342.357H989.604V370.873H1018.11V342.357Z" stroke="#DDDDDD" stroke-width="1.5"/>
<path d="M1046.62 342.357H1018.11V370.873H1046.62V342.357Z" stroke="#DDDDDD" stroke-width="1.5"/>
<path d="M1075.12 342.357H1046.62V370.873H1075.12V342.357Z" stroke="#DDDDDD" stroke-width="1.5"/>
<path d="M20.3835 370.873H-8.12292V399.388H20.3835V370.873Z" stroke="#DDDDDD" stroke-width="1.5"/>
<path d="M48.89 370.873H20.3835V399.388H48.89V370.873Z" stroke="#DDDDDD" stroke-width="1.5"/>
<path d="M77.3965 370.873H48.89V399.388H77.3965V370.873Z" stroke="#DDDDDD" stroke-width="1.5"/>
<path d="M105.903 370.873H77.3965V399.388H105.903V370.873Z" stroke="#DDDDDD" stroke-width="1.5"/>
<path d="M134.409 370.873H105.903V399.388H134.409V370.873Z" stroke="#DDDDDD" stroke-width="1.5"/>
<path d="M162.916 370.873H134.409V399.388H162.916V370.873Z" stroke="#DDDDDD" stroke-width="1.5"/>
<path d="M191.422 370.873H162.916V399.388H191.422V370.873Z" stroke="#DDDDDD" stroke-width="1.5"/>
<path d="M219.929 370.873H191.422V399.388H219.929V370.873Z" stroke="#DDDDDD" stroke-width="1.5"/>
<path d="M276.942 370.873H248.435V399.388H276.942V370.873Z" stroke="#DDDDDD" stroke-width="1.5"/>
<path d="M305.448 370.873H276.942V399.388H305.448V370.873Z" stroke="#DDDDDD" stroke-width="1.5"/>
<path d="M333.955 370.873H305.448V399.388H333.955V370.873Z" stroke="#DDDDDD" stroke-width="1.5"/>
<path d="M362.461 370.873H333.955V399.388H362.461V370.873Z" stroke="#DDDDDD" stroke-width="1.5"/>
<path d="M562.006 370.873H533.5V399.388H562.006V370.873Z" stroke="#DDDDDD" stroke-width="1.5"/>
<path d="M590.513 370.873H562.006V399.388H590.513V370.873Z" stroke="#DDDDDD" stroke-width="1.5"/>
<path d="M619.019 370.873H590.513V399.388H619.019V370.873Z" stroke="#DDDDDD" stroke-width="1.5"/>
<path d="M647.526 370.873H619.019V399.388H647.526V370.873Z" stroke="#DDDDDD" stroke-width="1.5"/>
<path d="M676.032 370.873H647.526V399.388H676.032V370.873Z" stroke="#DDDDDD" stroke-width="1.5"/>
<path d="M704.539 370.873H676.032V399.388H704.539V370.873Z" stroke="#DDDDDD" stroke-width="1.5"/>
<path d="M733.045 370.873H704.539V399.388H733.045V370.873Z" stroke="#DDDDDD" stroke-width="1.5"/>
<path d="M790.058 370.873H761.552V399.388H790.058V370.873Z" stroke="#DDDDDD" stroke-width="1.5"/>
<path d="M847.071 370.873H818.565V399.388H847.071V370.873Z" fill="#E2E7F0" fill-opacity="0.3" stroke="#DDDDDD" stroke-width="1.5"/>
<path d="M875.578 370.873H847.071V399.388H875.578V370.873Z" stroke="#DDDDDD" stroke-width="1.5"/>
<path d="M1046.62 370.873H1018.11V399.388H1046.62V370.873Z" stroke="#DDDDDD" stroke-width="1.5"/>
<path d="M1075.12 370.873H1046.62V399.388H1075.12V370.873Z" fill="#E2E7F0" fill-opacity="0.3" stroke="#DDDDDD" stroke-width="1.5"/>
<path d="M20.3835 427.903V399.388H-8.12292V427.903" stroke="#DDDDDD" stroke-width="1.5"/>
<path d="M48.89 427.903V399.388H20.3835V427.903" stroke="#DDDDDD" stroke-width="1.5"/>
<path d="M77.3965 427.903V399.388H48.89V427.903" stroke="#DDDDDD" stroke-width="1.5"/>
<path d="M105.903 427.903V399.388H77.3965V427.903" stroke="#DDDDDD" stroke-width="1.5"/>
<path d="M134.409 427.903V399.388H105.903V427.903" stroke="#DDDDDD" stroke-width="1.5"/>
<path d="M162.916 427.903V399.388H134.409V427.903" stroke="#DDDDDD" stroke-width="1.5"/>
<path d="M333.955 427.903V399.388H305.448V427.903" stroke="#DDDDDD" stroke-width="1.5"/>
<path d="M362.461 427.903V399.388H333.955V427.903" stroke="#DDDDDD" stroke-width="1.5"/>
<path d="M390.968 427.903V399.388H362.461V427.903" stroke="#DDDDDD" stroke-width="1.5"/>
<path d="M419.474 427.903V399.388H390.968V427.903" stroke="#DDDDDD" stroke-width="1.5"/>
<path d="M447.981 427.903V399.388H419.474V427.903" stroke="#DDDDDD" stroke-width="1.5"/>
<path d="M476.487 427.903V399.388H447.981V427.903" stroke="#DDDDDD" stroke-width="1.5"/>
<path d="M904.084 427.903V399.388H875.578V427.903" stroke="#DDDDDD" stroke-width="1.5"/>
<path d="M932.591 427.903V399.388H904.084V427.903" stroke="#DDDDDD" stroke-width="1.5"/>
<path d="M961.097 427.903V399.388H932.591V427.903" stroke="#DDDDDD" stroke-width="1.5"/>
<path d="M989.604 427.903V399.388H961.097V427.903" stroke="#DDDDDD" stroke-width="1.5"/>
<path d="M1018.11 427.903V399.388H989.604V427.903" stroke="#DDDDDD" stroke-width="1.5"/>
<path d="M1046.62 427.903V399.388H1018.11V427.903" stroke="#DDDDDD" stroke-width="1.5"/>
<path d="M1075.12 427.903V399.388H1046.62V427.903" stroke="#DDDDDD" stroke-width="1.5"/>
<path d="M20.4713 116.428L20.4713 169.072" stroke="url(#paint0_linear_58_3)" stroke-width="1.5" stroke-linecap="round" stroke-linejoin="round"/>
<g filter="url(#filter0_d_58_3)">
<path d="M932.591 177.407V124.763" stroke="url(#paint1_linear_58_3)" stroke-width="1.5" stroke-linecap="round" stroke-linejoin="round"/>
<path d="M162.916 200V147.356" stroke="url(#paint2_linear_58_3)" stroke-width="1.5" stroke-linecap="round" stroke-linejoin="round"/>
<path d="M219.994 58.3961L219.994 111.04" stroke="url(#paint3_linear_58_3)" stroke-width="1.5" stroke-linecap="round" stroke-linejoin="round"/>
<path d="M790.091 58.3961L790.091 111.04" stroke="url(#paint4_linear_58_3)" stroke-width="1.5" stroke-linecap="round" stroke-linejoin="round"/>
</g>
<rect x="263.989" width="539.022" height="399.388" fill="url(#paint5_radial_58_3)"/>
</g>
<path fill-rule="evenodd" clip-rule="evenodd" d="M163.277 346.58C162.913 346.005 162.907 345.273 163.263 344.693L176.653 322.851C177.398 321.636 179.196 321.743 179.793 323.037L192.025 349.572C192.479 350.556 191.956 351.715 190.918 352.026L171.889 357.735C171.124 357.964 170.299 357.657 169.871 356.981L163.277 346.58ZM178.198 329.238C178.327 328.595 179.207 328.502 179.467 329.104L187.905 348.628C188.064 348.996 187.866 349.42 187.482 349.534L174.335 353.459C173.852 353.603 173.389 353.181 173.488 352.687L178.198 329.238Z" fill="#20294F"/>
<path d="M88.5123 347.348L79.947 332.539C79.5543 331.859 78.5864 331.302 77.7963 331.302H72.4488C71.2059 331.302 70.6963 330.427 71.3163 329.358L74.2488 324.301C74.4815 323.9 74.481 323.406 74.2475 323.005C74.0139 322.604 73.5828 322.357 73.1163 322.357H65.6565C64.8663 322.357 63.8963 322.913 63.5008 323.592L49.0052 348.488C48.6098 349.167 48.6095 350.279 49.0047 350.958L52.7345 357.37C53.3559 358.439 54.3751 358.44 54.9992 357.373L57.9137 352.391C58.5378 351.324 59.557 351.326 60.1784 352.394L62.8206 356.936C63.2157 357.616 64.1854 358.171 64.9756 358.171H82.2135C83.0038 358.171 83.9735 357.616 84.3686 356.936L88.508 349.82C88.9031 349.141 88.905 348.028 88.5123 347.348ZM76.9449 346.635C77.5624 347.706 77.0508 348.582 75.8079 348.582H62.3996C61.1567 348.582 60.6482 347.707 61.2696 346.639L67.9791 335.104C68.6005 334.036 69.6174 334.036 70.2388 335.104L76.9449 346.635Z" fill="#20294F"/>
<path d="M283.617 195.25V141.25H297.628V148.103H297.935C298.446 146.773 299.196 145.554 300.185 144.446C301.174 143.321 302.401 142.426 303.867 141.762C305.333 141.08 307.037 140.739 308.98 140.739C311.571 140.739 314.034 141.429 316.37 142.81C318.722 144.191 320.631 146.364 322.097 149.33C323.58 152.296 324.321 156.148 324.321 160.887C324.321 165.421 323.614 169.179 322.199 172.162C320.801 175.145 318.926 177.37 316.574 178.836C314.239 180.301 311.674 181.034 308.878 181.034C307.037 181.034 305.392 180.736 303.943 180.139C302.512 179.526 301.284 178.699 300.262 177.659C299.256 176.603 298.48 175.409 297.935 174.08H297.73V195.25H283.617ZM297.424 160.887C297.424 162.796 297.671 164.449 298.165 165.847C298.676 167.228 299.392 168.301 300.313 169.068C301.25 169.818 302.367 170.193 303.662 170.193C304.958 170.193 306.057 169.827 306.961 169.094C307.881 168.344 308.58 167.279 309.057 165.898C309.551 164.5 309.799 162.83 309.799 160.887C309.799 158.943 309.551 157.282 309.057 155.901C308.58 154.503 307.881 153.438 306.961 152.705C306.057 151.955 304.958 151.58 303.662 151.58C302.367 151.58 301.25 151.955 300.313 152.705C299.392 153.438 298.676 154.503 298.165 155.901C297.671 157.282 297.424 158.943 297.424 160.887ZM330.234 180.523V141.25H343.939V148.716H344.348C345.064 145.955 346.197 143.935 347.748 142.657C349.316 141.378 351.149 140.739 353.245 140.739C353.859 140.739 354.464 140.79 355.061 140.892C355.674 140.978 356.262 141.105 356.825 141.276V153.318C356.126 153.08 355.265 152.901 354.242 152.782C353.22 152.662 352.342 152.603 351.609 152.603C350.228 152.603 348.984 152.918 347.876 153.549C346.785 154.162 345.924 155.032 345.294 156.157C344.663 157.264 344.348 158.568 344.348 160.068V180.523H330.234ZM361.453 180.523V141.25H375.566V180.523H361.453ZM368.51 137.159C366.6 137.159 364.964 136.529 363.6 135.267C362.237 134.006 361.555 132.489 361.555 130.716C361.555 128.943 362.237 127.426 363.6 126.165C364.964 124.904 366.6 124.273 368.51 124.273C370.436 124.273 372.072 124.904 373.419 126.165C374.782 127.426 375.464 128.943 375.464 130.716C375.464 132.489 374.782 134.006 373.419 135.267C372.072 136.529 370.436 137.159 368.51 137.159ZM418.655 154.034H405.666C405.598 153.233 405.317 152.543 404.823 151.963C404.328 151.384 403.689 150.941 402.905 150.634C402.138 150.31 401.286 150.148 400.348 150.148C399.138 150.148 398.098 150.37 397.229 150.813C396.36 151.256 395.934 151.887 395.951 152.705C395.934 153.284 396.181 153.821 396.692 154.316C397.22 154.81 398.235 155.193 399.735 155.466L407.712 156.898C411.735 157.631 414.726 158.867 416.686 160.605C418.664 162.327 419.661 164.637 419.678 167.534C419.661 170.33 418.826 172.759 417.172 174.821C415.536 176.867 413.294 178.452 410.448 179.577C407.618 180.685 404.388 181.239 400.757 181.239C394.757 181.239 390.061 180.012 386.669 177.557C383.294 175.103 381.411 171.864 381.019 167.841H395.03C395.218 169.086 395.831 170.049 396.871 170.73C397.928 171.395 399.257 171.728 400.86 171.728C402.155 171.728 403.22 171.506 404.056 171.063C404.908 170.62 405.343 169.989 405.36 169.171C405.343 168.421 404.968 167.824 404.235 167.381C403.519 166.938 402.394 166.58 400.86 166.307L393.905 165.08C389.899 164.381 386.899 163.051 384.905 161.091C382.911 159.131 381.922 156.608 381.939 153.523C381.922 150.796 382.638 148.486 384.087 146.594C385.553 144.685 387.641 143.236 390.351 142.247C393.078 141.242 396.309 140.739 400.041 140.739C405.718 140.739 410.192 141.915 413.465 144.267C416.755 146.62 418.485 149.875 418.655 154.034ZM425.086 180.523V141.25H438.483V148.716H438.892C439.711 146.262 441.108 144.318 443.086 142.887C445.063 141.455 447.415 140.739 450.142 140.739C452.904 140.739 455.282 141.472 457.276 142.938C459.27 144.387 460.472 146.313 460.881 148.716H461.29C461.955 146.313 463.37 144.387 465.534 142.938C467.699 141.472 470.239 140.739 473.154 140.739C476.921 140.739 479.972 141.949 482.307 144.37C484.659 146.79 485.836 150.012 485.836 154.034V180.523H471.722V157.614C471.722 155.892 471.287 154.546 470.418 153.574C469.549 152.586 468.381 152.091 466.915 152.091C465.466 152.091 464.316 152.586 463.463 153.574C462.628 154.546 462.211 155.892 462.211 157.614V180.523H448.711V157.614C448.711 155.892 448.276 154.546 447.407 153.574C446.537 152.586 445.37 152.091 443.904 152.091C442.932 152.091 442.097 152.313 441.398 152.756C440.699 153.199 440.154 153.838 439.762 154.674C439.387 155.492 439.199 156.472 439.199 157.614V180.523H425.086ZM503.74 181.137C501.234 181.137 499.018 180.728 497.092 179.909C495.183 179.074 493.683 177.813 492.592 176.125C491.501 174.438 490.956 172.29 490.956 169.682C490.956 167.534 491.322 165.702 492.055 164.185C492.788 162.651 493.811 161.398 495.123 160.426C496.436 159.455 497.961 158.713 499.7 158.202C501.456 157.691 503.348 157.358 505.376 157.205C507.575 157.034 509.339 156.83 510.669 156.591C512.015 156.336 512.987 155.986 513.583 155.543C514.18 155.083 514.478 154.478 514.478 153.728V153.625C514.478 152.603 514.086 151.818 513.302 151.273C512.518 150.728 511.512 150.455 510.285 150.455C508.939 150.455 507.839 150.753 506.987 151.35C506.152 151.929 505.649 152.824 505.478 154.034H492.49C492.66 151.648 493.419 149.449 494.765 147.438C496.129 145.409 498.115 143.79 500.723 142.58C503.331 141.353 506.586 140.739 510.49 140.739C513.302 140.739 515.825 141.071 518.058 141.736C520.291 142.384 522.191 143.296 523.76 144.472C525.328 145.631 526.521 146.995 527.339 148.563C528.174 150.114 528.592 151.801 528.592 153.625V180.523H515.399V175H515.092C514.308 176.466 513.353 177.651 512.228 178.554C511.12 179.458 509.85 180.114 508.419 180.523C507.004 180.932 505.444 181.137 503.74 181.137ZM508.342 172.239C509.416 172.239 510.421 172.017 511.359 171.574C512.314 171.131 513.089 170.492 513.686 169.657C514.282 168.821 514.581 167.807 514.581 166.614V163.341C514.206 163.495 513.805 163.639 513.379 163.776C512.97 163.912 512.527 164.04 512.049 164.159C511.589 164.279 511.095 164.389 510.566 164.492C510.055 164.594 509.518 164.688 508.956 164.773C507.865 164.943 506.97 165.225 506.271 165.617C505.589 165.992 505.078 166.461 504.737 167.023C504.413 167.568 504.251 168.182 504.251 168.864C504.251 169.955 504.635 170.79 505.402 171.37C506.169 171.949 507.149 172.239 508.342 172.239ZM561.108 154.341V164.978H536.563V154.341H561.108ZM580.451 181.137C577.945 181.137 575.729 180.728 573.803 179.909C571.894 179.074 570.394 177.813 569.303 176.125C568.212 174.438 567.666 172.29 567.666 169.682C567.666 167.534 568.033 165.702 568.766 164.185C569.499 162.651 570.522 161.398 571.834 160.426C573.147 159.455 574.672 158.713 576.411 158.202C578.166 157.691 580.059 157.358 582.087 157.205C584.286 157.034 586.05 156.83 587.38 156.591C588.726 156.336 589.698 155.986 590.294 155.543C590.891 155.083 591.189 154.478 591.189 153.728V153.625C591.189 152.603 590.797 151.818 590.013 151.273C589.229 150.728 588.223 150.455 586.996 150.455C585.649 150.455 584.55 150.753 583.698 151.35C582.863 151.929 582.36 152.824 582.189 154.034H569.201C569.371 151.648 570.13 149.449 571.476 147.438C572.84 145.409 574.826 143.79 577.434 142.58C580.041 141.353 583.297 140.739 587.201 140.739C590.013 140.739 592.536 141.071 594.769 141.736C597.002 142.384 598.902 143.296 600.47 144.472C602.039 145.631 603.232 146.995 604.05 148.563C604.885 150.114 605.303 151.801 605.303 153.625V180.523H592.11V175H591.803C591.019 176.466 590.064 177.651 588.939 178.554C587.831 179.458 586.561 180.114 585.13 180.523C583.715 180.932 582.155 181.137 580.451 181.137ZM585.053 172.239C586.127 172.239 587.132 172.017 588.07 171.574C589.024 171.131 589.8 170.492 590.397 169.657C590.993 168.821 591.291 167.807 591.291 166.614V163.341C590.916 163.495 590.516 163.639 590.09 163.776C589.681 163.912 589.238 164.04 588.76 164.159C588.3 164.279 587.806 164.389 587.277 164.492C586.766 164.594 586.229 164.688 585.666 164.773C584.576 164.943 583.681 165.225 582.982 165.617C582.3 165.992 581.789 166.461 581.448 167.023C581.124 167.568 580.962 168.182 580.962 168.864C580.962 169.955 581.345 170.79 582.113 171.37C582.88 171.949 583.86 172.239 585.053 172.239ZM624.217 141.25L629.944 153.421L635.978 141.25H649.99L639.456 160.887L650.501 180.523H636.592L629.944 168.046L623.501 180.523H609.387L620.535 160.887L610.103 141.25H624.217ZM655.007 180.523V141.25H669.121V180.523H655.007ZM662.064 137.159C660.155 137.159 658.519 136.529 657.155 135.267C655.791 134.006 655.11 132.489 655.11 130.716C655.11 128.943 655.791 127.426 657.155 126.165C658.519 124.904 660.155 124.273 662.064 124.273C663.99 124.273 665.627 124.904 666.973 126.165C668.337 127.426 669.019 128.943 669.019 130.716C669.019 132.489 668.337 134.006 666.973 135.267C665.627 136.529 663.99 137.159 662.064 137.159ZM695.233 181.239C690.971 181.239 687.323 180.395 684.289 178.708C681.255 177.003 678.929 174.634 677.309 171.6C675.69 168.549 674.88 165.012 674.88 160.989C674.88 156.966 675.69 153.438 677.309 150.404C678.929 147.353 681.255 144.983 684.289 143.296C687.323 141.591 690.971 140.739 695.233 140.739C699.494 140.739 703.142 141.591 706.176 143.296C709.21 144.983 711.537 147.353 713.156 150.404C714.775 153.438 715.585 156.966 715.585 160.989C715.585 165.012 714.775 168.549 713.156 171.6C711.537 174.634 709.21 177.003 706.176 178.708C703.142 180.395 699.494 181.239 695.233 181.239ZM695.335 170.807C696.528 170.807 697.559 170.407 698.429 169.605C699.298 168.804 699.971 167.662 700.448 166.179C700.926 164.696 701.164 162.932 701.164 160.887C701.164 158.824 700.926 157.06 700.448 155.594C699.971 154.111 699.298 152.969 698.429 152.168C697.559 151.367 696.528 150.966 695.335 150.966C694.073 150.966 692.991 151.367 692.088 152.168C691.184 152.969 690.494 154.111 690.017 155.594C689.539 157.06 689.301 158.824 689.301 160.887C689.301 162.932 689.539 164.696 690.017 166.179C690.494 167.662 691.184 168.804 692.088 169.605C692.991 170.407 694.073 170.807 695.335 170.807ZM721.312 180.523V141.25H734.71V148.716H735.119C735.937 146.262 737.335 144.318 739.312 142.887C741.289 141.455 743.642 140.739 746.369 140.739C749.13 140.739 751.508 141.472 753.502 142.938C755.497 144.387 756.698 146.313 757.108 148.716H757.517C758.181 146.313 759.596 144.387 761.761 142.938C763.926 141.472 766.465 140.739 769.38 140.739C773.147 140.739 776.198 141.949 778.534 144.37C780.886 146.79 782.062 150.012 782.062 154.034V180.523H767.948V157.614C767.948 155.892 767.514 154.546 766.644 153.574C765.775 152.586 764.608 152.091 763.142 152.091C761.693 152.091 760.542 152.586 759.69 153.574C758.855 154.546 758.437 155.892 758.437 157.614V180.523H744.937V157.614C744.937 155.892 744.502 154.546 743.633 153.574C742.764 152.586 741.596 152.091 740.13 152.091C739.159 152.091 738.323 152.313 737.625 152.756C736.926 153.199 736.38 153.838 735.988 154.674C735.613 155.492 735.426 156.472 735.426 157.614V180.523H721.312Z" fill="url(#paint6_radial_58_3)"/>
<path d="M301.547 222.196V219.545H315.474V222.196H310.079V237H306.942V222.196H301.547ZM321.107 229.33V237H318.022V219.545H321.039V226.134H321.192C321.499 225.395 321.974 224.812 322.616 224.386C323.263 223.955 324.087 223.739 325.087 223.739C325.996 223.739 326.789 223.929 327.465 224.31C328.141 224.69 328.664 225.247 329.033 225.98C329.408 226.713 329.596 227.608 329.596 228.665V237H326.51V229.142C326.51 228.261 326.283 227.577 325.829 227.088C325.38 226.594 324.749 226.347 323.937 226.347C323.391 226.347 322.902 226.466 322.471 226.705C322.045 226.937 321.709 227.276 321.465 227.719C321.226 228.162 321.107 228.699 321.107 229.33ZM338.536 237.256C337.224 237.256 336.09 236.983 335.135 236.438C334.187 235.886 333.456 235.108 332.945 234.102C332.434 233.091 332.178 231.901 332.178 230.531C332.178 229.185 332.434 228.003 332.945 226.986C333.462 225.963 334.184 225.168 335.11 224.599C336.036 224.026 337.124 223.739 338.374 223.739C339.181 223.739 339.942 223.869 340.658 224.131C341.38 224.386 342.016 224.784 342.567 225.324C343.124 225.864 343.562 226.551 343.88 227.386C344.198 228.216 344.357 229.205 344.357 230.352V231.298H333.627V229.219H341.4C341.394 228.628 341.266 228.102 341.016 227.642C340.766 227.176 340.417 226.81 339.968 226.543C339.525 226.276 339.008 226.142 338.417 226.142C337.786 226.142 337.232 226.295 336.755 226.602C336.277 226.903 335.905 227.301 335.638 227.795C335.377 228.284 335.243 228.821 335.238 229.406V231.222C335.238 231.983 335.377 232.636 335.655 233.182C335.934 233.722 336.323 234.136 336.823 234.426C337.323 234.71 337.908 234.852 338.579 234.852C339.027 234.852 339.434 234.79 339.797 234.665C340.161 234.534 340.476 234.344 340.743 234.094C341.01 233.844 341.212 233.534 341.349 233.165L344.229 233.489C344.047 234.25 343.701 234.915 343.189 235.483C342.684 236.045 342.036 236.483 341.246 236.795C340.456 237.102 339.553 237.256 338.536 237.256ZM358.63 237.256C357.352 237.256 356.244 236.974 355.307 236.412C354.369 235.849 353.642 235.062 353.125 234.051C352.613 233.04 352.358 231.858 352.358 230.506C352.358 229.153 352.613 227.969 353.125 226.952C353.642 225.935 354.369 225.145 355.307 224.582C356.244 224.02 357.352 223.739 358.63 223.739C359.909 223.739 361.017 224.02 361.954 224.582C362.892 225.145 363.616 225.935 364.128 226.952C364.645 227.969 364.903 229.153 364.903 230.506C364.903 231.858 364.645 233.04 364.128 234.051C363.616 235.062 362.892 235.849 361.954 236.412C361.017 236.974 359.909 237.256 358.63 237.256ZM358.648 234.784C359.341 234.784 359.92 234.594 360.386 234.213C360.852 233.827 361.199 233.31 361.426 232.662C361.659 232.014 361.775 231.293 361.775 230.497C361.775 229.696 361.659 228.972 361.426 228.324C361.199 227.67 360.852 227.151 360.386 226.764C359.92 226.378 359.341 226.185 358.648 226.185C357.937 226.185 357.346 226.378 356.875 226.764C356.409 227.151 356.059 227.67 355.826 228.324C355.599 228.972 355.486 229.696 355.486 230.497C355.486 231.293 355.599 232.014 355.826 232.662C356.059 233.31 356.409 233.827 356.875 234.213C357.346 234.594 357.937 234.784 358.648 234.784ZM374.152 223.909V226.295H366.414V223.909H374.152ZM368.349 237V222.673C368.349 221.793 368.53 221.06 368.894 220.474C369.263 219.889 369.758 219.452 370.377 219.162C370.996 218.872 371.684 218.727 372.439 218.727C372.974 218.727 373.448 218.77 373.863 218.855C374.277 218.94 374.584 219.017 374.783 219.085L374.17 221.472C374.039 221.432 373.874 221.392 373.675 221.352C373.476 221.307 373.255 221.284 373.01 221.284C372.437 221.284 372.03 221.423 371.792 221.702C371.559 221.974 371.442 222.366 371.442 222.878V237H368.349ZM383.199 223.909V226.295H375.461V223.909H383.199ZM377.395 237V222.673C377.395 221.793 377.577 221.06 377.941 220.474C378.31 219.889 378.804 219.452 379.424 219.162C380.043 218.872 380.731 218.727 381.486 218.727C382.02 218.727 382.495 218.77 382.91 218.855C383.324 218.94 383.631 219.017 383.83 219.085L383.216 221.472C383.086 221.432 382.921 221.392 382.722 221.352C382.523 221.307 382.302 221.284 382.057 221.284C381.483 221.284 381.077 221.423 380.839 221.702C380.606 221.974 380.489 222.366 380.489 222.878V237H377.395ZM385.616 237V223.909H388.701V237H385.616ZM387.167 222.051C386.678 222.051 386.258 221.889 385.905 221.565C385.553 221.236 385.377 220.841 385.377 220.381C385.377 219.915 385.553 219.52 385.905 219.196C386.258 218.866 386.678 218.702 387.167 218.702C387.661 218.702 388.081 218.866 388.428 219.196C388.78 219.52 388.956 219.915 388.956 220.381C388.956 220.841 388.78 221.236 388.428 221.565C388.081 221.889 387.661 222.051 387.167 222.051ZM397.584 237.256C396.277 237.256 395.155 236.969 394.217 236.395C393.285 235.821 392.567 235.028 392.061 234.017C391.561 233 391.311 231.83 391.311 230.506C391.311 229.176 391.567 228.003 392.078 226.986C392.589 225.963 393.311 225.168 394.243 224.599C395.18 224.026 396.288 223.739 397.567 223.739C398.629 223.739 399.569 223.935 400.388 224.327C401.211 224.713 401.868 225.261 402.356 225.972C402.845 226.676 403.123 227.5 403.192 228.443H400.243C400.123 227.812 399.839 227.287 399.39 226.866C398.947 226.44 398.353 226.227 397.609 226.227C396.978 226.227 396.425 226.398 395.947 226.739C395.47 227.074 395.098 227.557 394.831 228.188C394.569 228.818 394.439 229.574 394.439 230.455C394.439 231.347 394.569 232.114 394.831 232.756C395.092 233.392 395.459 233.884 395.93 234.23C396.407 234.571 396.967 234.741 397.609 234.741C398.064 234.741 398.47 234.656 398.828 234.486C399.192 234.31 399.496 234.057 399.74 233.727C399.984 233.398 400.152 232.997 400.243 232.526H403.192C403.118 233.452 402.845 234.273 402.373 234.989C401.902 235.699 401.26 236.256 400.447 236.659C399.635 237.057 398.68 237.256 397.584 237.256ZM405.725 237V223.909H408.81V237H405.725ZM407.276 222.051C406.787 222.051 406.367 221.889 406.015 221.565C405.662 221.236 405.486 220.841 405.486 220.381C405.486 219.915 405.662 219.52 406.015 219.196C406.367 218.866 406.787 218.702 407.276 218.702C407.77 218.702 408.191 218.866 408.537 219.196C408.89 219.52 409.066 219.915 409.066 220.381C409.066 220.841 408.89 221.236 408.537 221.565C408.191 221.889 407.77 222.051 407.276 222.051ZM415.75 237.264C414.92 237.264 414.173 237.116 413.508 236.821C412.849 236.52 412.326 236.077 411.94 235.491C411.559 234.906 411.369 234.185 411.369 233.327C411.369 232.588 411.505 231.977 411.778 231.494C412.051 231.011 412.423 230.625 412.895 230.335C413.366 230.045 413.898 229.827 414.488 229.679C415.085 229.526 415.701 229.415 416.338 229.347C417.105 229.267 417.727 229.196 418.204 229.134C418.682 229.065 419.028 228.963 419.244 228.827C419.466 228.685 419.576 228.466 419.576 228.17V228.119C419.576 227.477 419.386 226.98 419.005 226.628C418.625 226.276 418.076 226.099 417.361 226.099C416.605 226.099 416.005 226.264 415.562 226.594C415.125 226.923 414.829 227.312 414.676 227.761L411.795 227.352C412.023 226.557 412.398 225.892 412.92 225.358C413.443 224.818 414.082 224.415 414.838 224.148C415.594 223.875 416.429 223.739 417.344 223.739C417.974 223.739 418.602 223.812 419.227 223.96C419.852 224.108 420.423 224.352 420.94 224.693C421.457 225.028 421.872 225.486 422.184 226.065C422.503 226.645 422.662 227.369 422.662 228.239V237H419.696V235.202H419.594C419.406 235.565 419.142 235.906 418.801 236.224C418.466 236.537 418.042 236.79 417.531 236.983C417.025 237.17 416.432 237.264 415.75 237.264ZM416.551 234.997C417.17 234.997 417.707 234.875 418.162 234.631C418.616 234.381 418.966 234.051 419.21 233.642C419.46 233.233 419.585 232.787 419.585 232.304V230.761C419.488 230.841 419.324 230.915 419.091 230.983C418.863 231.051 418.608 231.111 418.324 231.162C418.04 231.213 417.758 231.259 417.48 231.298C417.201 231.338 416.96 231.372 416.755 231.401C416.295 231.463 415.883 231.565 415.52 231.707C415.156 231.849 414.869 232.048 414.659 232.304C414.449 232.554 414.344 232.878 414.344 233.276C414.344 233.844 414.551 234.273 414.966 234.562C415.38 234.852 415.909 234.997 416.551 234.997ZM428.849 219.545V237H425.764V219.545H428.849ZM438.111 237V219.545H444.657C445.998 219.545 447.123 219.795 448.032 220.295C448.947 220.795 449.637 221.483 450.103 222.358C450.574 223.227 450.81 224.216 450.81 225.324C450.81 226.443 450.574 227.437 450.103 228.307C449.631 229.176 448.935 229.861 448.015 230.361C447.094 230.855 445.961 231.102 444.614 231.102H440.276V228.503H444.188C444.972 228.503 445.614 228.366 446.114 228.094C446.614 227.821 446.983 227.446 447.222 226.969C447.466 226.491 447.589 225.943 447.589 225.324C447.589 224.705 447.466 224.159 447.222 223.688C446.983 223.216 446.611 222.849 446.106 222.588C445.606 222.321 444.961 222.188 444.171 222.188H441.273V237H438.111ZM453.42 237V223.909H456.412V226.091H456.548C456.787 225.335 457.196 224.753 457.775 224.344C458.361 223.929 459.028 223.722 459.778 223.722C459.949 223.722 460.139 223.73 460.349 223.747C460.565 223.759 460.744 223.778 460.886 223.807V226.645C460.755 226.599 460.548 226.56 460.264 226.526C459.986 226.486 459.716 226.466 459.454 226.466C458.892 226.466 458.386 226.588 457.937 226.832C457.494 227.071 457.145 227.403 456.889 227.83C456.633 228.256 456.505 228.747 456.505 229.304V237H453.42ZM462.936 237V223.909H466.021V237H462.936ZM464.487 222.051C463.998 222.051 463.578 221.889 463.226 221.565C462.873 221.236 462.697 220.841 462.697 220.381C462.697 219.915 462.873 219.52 463.226 219.196C463.578 218.866 463.998 218.702 464.487 218.702C464.981 218.702 465.402 218.866 465.748 219.196C466.101 219.52 466.277 219.915 466.277 220.381C466.277 220.841 466.101 221.236 465.748 221.565C465.402 221.889 464.981 222.051 464.487 222.051ZM479.54 227.369L476.728 227.676C476.648 227.392 476.509 227.125 476.31 226.875C476.117 226.625 475.856 226.423 475.526 226.27C475.197 226.116 474.793 226.04 474.316 226.04C473.674 226.04 473.134 226.179 472.697 226.457C472.265 226.736 472.052 227.097 472.057 227.54C472.052 227.92 472.191 228.23 472.475 228.469C472.765 228.707 473.242 228.903 473.907 229.057L476.14 229.534C477.378 229.801 478.299 230.224 478.901 230.804C479.509 231.384 479.816 232.142 479.822 233.08C479.816 233.903 479.574 234.631 479.097 235.261C478.626 235.886 477.969 236.375 477.128 236.727C476.287 237.08 475.322 237.256 474.231 237.256C472.628 237.256 471.339 236.92 470.361 236.25C469.384 235.574 468.802 234.634 468.614 233.429L471.623 233.139C471.759 233.73 472.049 234.176 472.492 234.477C472.935 234.778 473.512 234.929 474.222 234.929C474.955 234.929 475.543 234.778 475.986 234.477C476.435 234.176 476.66 233.804 476.66 233.361C476.66 232.986 476.515 232.676 476.225 232.432C475.941 232.187 475.498 232 474.895 231.869L472.662 231.401C471.407 231.139 470.478 230.699 469.876 230.08C469.273 229.455 468.975 228.665 468.981 227.71C468.975 226.903 469.194 226.205 469.637 225.614C470.086 225.017 470.708 224.557 471.503 224.233C472.304 223.903 473.228 223.739 474.273 223.739C475.807 223.739 477.015 224.065 477.895 224.719C478.782 225.372 479.33 226.256 479.54 227.369ZM482.366 237V223.909H485.314V226.134H485.468C485.741 225.384 486.192 224.798 486.823 224.378C487.454 223.952 488.206 223.739 489.081 223.739C489.968 223.739 490.715 223.955 491.323 224.386C491.937 224.812 492.368 225.395 492.618 226.134H492.755C493.045 225.406 493.533 224.827 494.221 224.395C494.914 223.957 495.735 223.739 496.684 223.739C497.888 223.739 498.871 224.119 499.633 224.881C500.394 225.642 500.775 226.753 500.775 228.213V237H497.681V228.69C497.681 227.878 497.465 227.284 497.033 226.909C496.601 226.528 496.073 226.338 495.448 226.338C494.704 226.338 494.121 226.571 493.701 227.037C493.286 227.497 493.079 228.097 493.079 228.835V237H490.053V228.562C490.053 227.886 489.849 227.347 489.439 226.943C489.036 226.54 488.508 226.338 487.854 226.338C487.411 226.338 487.008 226.452 486.644 226.679C486.28 226.901 485.991 227.216 485.775 227.625C485.559 228.028 485.451 228.5 485.451 229.04V237H482.366ZM507.672 237.264C506.842 237.264 506.095 237.116 505.43 236.821C504.771 236.52 504.248 236.077 503.862 235.491C503.481 234.906 503.291 234.185 503.291 233.327C503.291 232.588 503.427 231.977 503.7 231.494C503.973 231.011 504.345 230.625 504.817 230.335C505.288 230.045 505.819 229.827 506.41 229.679C507.007 229.526 507.623 229.415 508.26 229.347C509.027 229.267 509.649 229.196 510.126 229.134C510.603 229.065 510.95 228.963 511.166 228.827C511.388 228.685 511.498 228.466 511.498 228.17V228.119C511.498 227.477 511.308 226.98 510.927 226.628C510.547 226.276 509.998 226.099 509.282 226.099C508.527 226.099 507.927 226.264 507.484 226.594C507.047 226.923 506.751 227.312 506.598 227.761L503.717 227.352C503.944 226.557 504.319 225.892 504.842 225.358C505.365 224.818 506.004 224.415 506.76 224.148C507.515 223.875 508.351 223.739 509.265 223.739C509.896 223.739 510.524 223.812 511.149 223.96C511.774 224.108 512.345 224.352 512.862 224.693C513.379 225.028 513.794 225.486 514.106 226.065C514.425 226.645 514.584 227.369 514.584 228.239V237H511.618V235.202H511.515C511.328 235.565 511.064 235.906 510.723 236.224C510.388 236.537 509.964 236.79 509.453 236.983C508.947 237.17 508.353 237.264 507.672 237.264ZM508.473 234.997C509.092 234.997 509.629 234.875 510.084 234.631C510.538 234.381 510.888 234.051 511.132 233.642C511.382 233.233 511.507 232.787 511.507 232.304V230.761C511.41 230.841 511.246 230.915 511.013 230.983C510.785 231.051 510.53 231.111 510.246 231.162C509.961 231.213 509.68 231.259 509.402 231.298C509.123 231.338 508.882 231.372 508.677 231.401C508.217 231.463 507.805 231.565 507.442 231.707C507.078 231.849 506.791 232.048 506.581 232.304C506.371 232.554 506.265 232.878 506.265 233.276C506.265 233.844 506.473 234.273 506.888 234.562C507.302 234.852 507.831 234.997 508.473 234.997ZM523.639 237V223.909H526.724V237H523.639ZM525.19 222.051C524.701 222.051 524.281 221.889 523.929 221.565C523.576 221.236 523.4 220.841 523.4 220.381C523.4 219.915 523.576 219.52 523.929 219.196C524.281 218.866 524.701 218.702 525.19 218.702C525.684 218.702 526.105 218.866 526.451 219.196C526.804 219.52 526.98 219.915 526.98 220.381C526.98 220.841 526.804 221.236 526.451 221.565C526.105 221.889 525.684 222.051 525.19 222.051ZM532.982 229.33V237H529.897V223.909H532.846V226.134H532.999C533.3 225.401 533.78 224.818 534.439 224.386C535.104 223.955 535.925 223.739 536.902 223.739C537.806 223.739 538.593 223.932 539.263 224.318C539.939 224.705 540.462 225.264 540.831 225.997C541.206 226.73 541.391 227.619 541.385 228.665V237H538.3V229.142C538.3 228.267 538.073 227.582 537.618 227.088C537.17 226.594 536.547 226.347 535.752 226.347C535.212 226.347 534.732 226.466 534.312 226.705C533.897 226.937 533.57 227.276 533.331 227.719C533.099 228.162 532.982 228.699 532.982 229.33ZM551.059 223.909V226.295H543.533V223.909H551.059ZM545.391 220.773H548.476V233.062C548.476 233.477 548.539 233.795 548.664 234.017C548.795 234.233 548.965 234.381 549.175 234.46C549.385 234.54 549.618 234.58 549.874 234.58C550.067 234.58 550.243 234.565 550.402 234.537C550.567 234.509 550.692 234.483 550.777 234.46L551.297 236.872C551.133 236.929 550.897 236.991 550.59 237.06C550.289 237.128 549.92 237.168 549.482 237.179C548.709 237.202 548.013 237.085 547.394 236.83C546.775 236.568 546.283 236.165 545.92 235.619C545.562 235.074 545.385 234.392 545.391 233.574V220.773ZM559.294 237.256C557.981 237.256 556.848 236.983 555.893 236.438C554.944 235.886 554.214 235.108 553.703 234.102C553.192 233.091 552.936 231.901 552.936 230.531C552.936 229.185 553.192 228.003 553.703 226.986C554.22 225.963 554.942 225.168 555.868 224.599C556.794 224.026 557.882 223.739 559.132 223.739C559.939 223.739 560.7 223.869 561.416 224.131C562.138 224.386 562.774 224.784 563.325 225.324C563.882 225.864 564.319 226.551 564.638 227.386C564.956 228.216 565.115 229.205 565.115 230.352V231.298H554.385V229.219H562.157C562.152 228.628 562.024 228.102 561.774 227.642C561.524 227.176 561.175 226.81 560.726 226.543C560.282 226.276 559.765 226.142 559.175 226.142C558.544 226.142 557.99 226.295 557.513 226.602C557.035 226.903 556.663 227.301 556.396 227.795C556.135 228.284 556.001 228.821 555.996 229.406V231.222C555.996 231.983 556.135 232.636 556.413 233.182C556.692 233.722 557.081 234.136 557.581 234.426C558.081 234.71 558.666 234.852 559.336 234.852C559.785 234.852 560.192 234.79 560.555 234.665C560.919 234.534 561.234 234.344 561.501 234.094C561.768 233.844 561.97 233.534 562.106 233.165L564.987 233.489C564.805 234.25 564.459 234.915 563.947 235.483C563.442 236.045 562.794 236.483 562.004 236.795C561.214 237.102 560.311 237.256 559.294 237.256ZM573.418 242.182C572.31 242.182 571.358 242.031 570.563 241.73C569.768 241.435 569.128 241.037 568.645 240.537C568.162 240.037 567.827 239.483 567.64 238.875L570.418 238.202C570.543 238.457 570.725 238.71 570.964 238.96C571.202 239.216 571.523 239.426 571.927 239.591C572.336 239.761 572.85 239.847 573.469 239.847C574.344 239.847 575.069 239.634 575.643 239.207C576.216 238.787 576.503 238.094 576.503 237.128V234.648H576.35C576.191 234.966 575.958 235.293 575.651 235.628C575.35 235.963 574.949 236.244 574.449 236.472C573.955 236.699 573.333 236.812 572.583 236.812C571.577 236.812 570.665 236.577 569.847 236.105C569.035 235.628 568.387 234.918 567.904 233.974C567.427 233.026 567.188 231.838 567.188 230.412C567.188 228.974 567.427 227.761 567.904 226.773C568.387 225.778 569.037 225.026 569.856 224.514C570.674 223.997 571.586 223.739 572.591 223.739C573.358 223.739 573.989 223.869 574.483 224.131C574.983 224.386 575.381 224.696 575.677 225.06C575.972 225.418 576.197 225.756 576.35 226.074H576.52V223.909H579.563V237.213C579.563 238.332 579.296 239.259 578.762 239.991C578.228 240.724 577.498 241.273 576.572 241.636C575.645 242 574.594 242.182 573.418 242.182ZM573.444 234.392C574.097 234.392 574.654 234.233 575.114 233.915C575.574 233.597 575.924 233.139 576.162 232.543C576.401 231.946 576.52 231.23 576.52 230.395C576.52 229.571 576.401 228.849 576.162 228.23C575.929 227.611 575.583 227.131 575.123 226.79C574.668 226.443 574.108 226.27 573.444 226.27C572.756 226.27 572.182 226.449 571.722 226.807C571.262 227.165 570.915 227.656 570.682 228.281C570.449 228.901 570.333 229.605 570.333 230.395C570.333 231.196 570.449 231.898 570.682 232.5C570.921 233.097 571.27 233.562 571.731 233.898C572.197 234.227 572.768 234.392 573.444 234.392ZM582.725 237V223.909H585.716V226.091H585.853C586.091 225.335 586.501 224.753 587.08 224.344C587.665 223.929 588.333 223.722 589.083 223.722C589.253 223.722 589.444 223.73 589.654 223.747C589.87 223.759 590.049 223.778 590.191 223.807V226.645C590.06 226.599 589.853 226.56 589.569 226.526C589.29 226.486 589.02 226.466 588.759 226.466C588.197 226.466 587.691 226.588 587.242 226.832C586.799 227.071 586.449 227.403 586.194 227.83C585.938 228.256 585.81 228.747 585.81 229.304V237H582.725ZM595.773 237.264C594.944 237.264 594.197 237.116 593.532 236.821C592.873 236.52 592.35 236.077 591.964 235.491C591.583 234.906 591.393 234.185 591.393 233.327C591.393 232.588 591.529 231.977 591.802 231.494C592.074 231.011 592.447 230.625 592.918 230.335C593.39 230.045 593.921 229.827 594.512 229.679C595.108 229.526 595.725 229.415 596.361 229.347C597.128 229.267 597.751 229.196 598.228 229.134C598.705 229.065 599.052 228.963 599.268 228.827C599.489 228.685 599.6 228.466 599.6 228.17V228.119C599.6 227.477 599.41 226.98 599.029 226.628C598.648 226.276 598.1 226.099 597.384 226.099C596.628 226.099 596.029 226.264 595.586 226.594C595.148 226.923 594.853 227.312 594.699 227.761L591.819 227.352C592.046 226.557 592.421 225.892 592.944 225.358C593.466 224.818 594.106 224.415 594.861 224.148C595.617 223.875 596.452 223.739 597.367 223.739C597.998 223.739 598.626 223.812 599.251 223.96C599.876 224.108 600.447 224.352 600.964 224.693C601.481 225.028 601.895 225.486 602.208 226.065C602.526 226.645 602.685 227.369 602.685 228.239V237H599.719V235.202H599.617C599.429 235.565 599.165 235.906 598.824 236.224C598.489 236.537 598.066 236.79 597.554 236.983C597.049 237.17 596.455 237.264 595.773 237.264ZM596.574 234.997C597.194 234.997 597.731 234.875 598.185 234.631C598.64 234.381 598.989 234.051 599.233 233.642C599.483 233.233 599.608 232.787 599.608 232.304V230.761C599.512 230.841 599.347 230.915 599.114 230.983C598.887 231.051 598.631 231.111 598.347 231.162C598.063 231.213 597.782 231.259 597.503 231.298C597.225 231.338 596.983 231.372 596.779 231.401C596.319 231.463 595.907 231.565 595.543 231.707C595.179 231.849 594.893 232.048 594.682 232.304C594.472 232.554 594.367 232.878 594.367 233.276C594.367 233.844 594.574 234.273 594.989 234.562C595.404 234.852 595.932 234.997 596.574 234.997ZM612.324 223.909V226.295H604.799V223.909H612.324ZM606.657 220.773H609.742V233.062C609.742 233.477 609.804 233.795 609.929 234.017C610.06 234.233 610.231 234.381 610.441 234.46C610.651 234.54 610.884 234.58 611.14 234.58C611.333 234.58 611.509 234.565 611.668 234.537C611.833 234.509 611.958 234.483 612.043 234.46L612.563 236.872C612.398 236.929 612.162 236.991 611.856 237.06C611.554 237.128 611.185 237.168 610.748 237.179C609.975 237.202 609.279 237.085 608.66 236.83C608.04 236.568 607.549 236.165 607.185 235.619C606.827 235.074 606.651 234.392 606.657 233.574V220.773ZM614.905 237V223.909H617.99V237H614.905ZM616.456 222.051C615.967 222.051 615.547 221.889 615.194 221.565C614.842 221.236 614.666 220.841 614.666 220.381C614.666 219.915 614.842 219.52 615.194 219.196C615.547 218.866 615.967 218.702 616.456 218.702C616.95 218.702 617.371 218.866 617.717 219.196C618.069 219.52 618.246 219.915 618.246 220.381C618.246 220.841 618.069 221.236 617.717 221.565C617.371 221.889 616.95 222.051 616.456 222.051ZM626.873 237.256C625.594 237.256 624.486 236.974 623.549 236.412C622.611 235.849 621.884 235.062 621.367 234.051C620.856 233.04 620.6 231.858 620.6 230.506C620.6 229.153 620.856 227.969 621.367 226.952C621.884 225.935 622.611 225.145 623.549 224.582C624.486 224.02 625.594 223.739 626.873 223.739C628.151 223.739 629.259 224.02 630.197 224.582C631.134 225.145 631.858 225.935 632.37 226.952C632.887 227.969 633.145 229.153 633.145 230.506C633.145 231.858 632.887 233.04 632.37 234.051C631.858 235.062 631.134 235.849 630.197 236.412C629.259 236.974 628.151 237.256 626.873 237.256ZM626.89 234.784C627.583 234.784 628.162 234.594 628.628 234.213C629.094 233.827 629.441 233.31 629.668 232.662C629.901 232.014 630.018 231.293 630.018 230.497C630.018 229.696 629.901 228.972 629.668 228.324C629.441 227.67 629.094 227.151 628.628 226.764C628.162 226.378 627.583 226.185 626.89 226.185C626.179 226.185 625.589 226.378 625.117 226.764C624.651 227.151 624.302 227.67 624.069 228.324C623.841 228.972 623.728 229.696 623.728 230.497C623.728 231.293 623.841 232.014 624.069 232.662C624.302 233.31 624.651 233.827 625.117 234.213C625.589 234.594 626.179 234.784 626.89 234.784ZM638.849 229.33V237H635.764V223.909H638.713V226.134H638.866C639.167 225.401 639.648 224.818 640.307 224.386C640.971 223.955 641.792 223.739 642.77 223.739C643.673 223.739 644.46 223.932 645.13 224.318C645.807 224.705 646.329 225.264 646.699 225.997C647.074 226.73 647.258 227.619 647.253 228.665V237H644.167V229.142C644.167 228.267 643.94 227.582 643.486 227.088C643.037 226.594 642.415 226.347 641.619 226.347C641.079 226.347 640.599 226.466 640.179 226.705C639.764 226.937 639.437 227.276 639.199 227.719C638.966 228.162 638.849 228.699 638.849 229.33ZM662.973 223.909V226.295H655.234V223.909H662.973ZM657.169 237V222.673C657.169 221.793 657.351 221.06 657.714 220.474C658.084 219.889 658.578 219.452 659.197 219.162C659.817 218.872 660.504 218.727 661.26 218.727C661.794 218.727 662.268 218.77 662.683 218.855C663.098 218.94 663.405 219.017 663.603 219.085L662.99 221.472C662.859 221.432 662.694 221.392 662.496 221.352C662.297 221.307 662.075 221.284 661.831 221.284C661.257 221.284 660.851 221.423 660.612 221.702C660.379 221.974 660.263 222.366 660.263 222.878V237H657.169ZM670.607 237.256C669.329 237.256 668.221 236.974 667.283 236.412C666.346 235.849 665.618 235.062 665.101 234.051C664.59 233.04 664.334 231.858 664.334 230.506C664.334 229.153 664.59 227.969 665.101 226.952C665.618 225.935 666.346 225.145 667.283 224.582C668.221 224.02 669.329 223.739 670.607 223.739C671.885 223.739 672.993 224.02 673.931 224.582C674.868 225.145 675.593 225.935 676.104 226.952C676.621 227.969 676.88 229.153 676.88 230.506C676.88 231.858 676.621 233.04 676.104 234.051C675.593 235.062 674.868 235.849 673.931 236.412C672.993 236.974 671.885 237.256 670.607 237.256ZM670.624 234.784C671.317 234.784 671.897 234.594 672.363 234.213C672.829 233.827 673.175 233.31 673.402 232.662C673.635 232.014 673.752 231.293 673.752 230.497C673.752 229.696 673.635 228.972 673.402 228.324C673.175 227.67 672.829 227.151 672.363 226.764C671.897 226.378 671.317 226.185 670.624 226.185C669.914 226.185 669.323 226.378 668.851 226.764C668.385 227.151 668.036 227.67 667.803 228.324C667.576 228.972 667.462 229.696 667.462 230.497C667.462 231.293 667.576 232.014 667.803 232.662C668.036 233.31 668.385 233.827 668.851 234.213C669.323 234.594 669.914 234.784 670.624 234.784ZM679.498 237V223.909H682.49V226.091H682.626C682.865 225.335 683.274 224.753 683.853 224.344C684.439 223.929 685.106 223.722 685.856 223.722C686.027 223.722 686.217 223.73 686.427 223.747C686.643 223.759 686.822 223.778 686.964 223.807V226.645C686.834 226.599 686.626 226.56 686.342 226.526C686.064 226.486 685.794 226.466 685.532 226.466C684.97 226.466 684.464 226.588 684.015 226.832C683.572 227.071 683.223 227.403 682.967 227.83C682.711 228.256 682.584 228.747 682.584 229.304V237H679.498ZM697.345 237H693.97L700.115 219.545H704.018L710.172 237H706.797L702.135 223.125H701.998L697.345 237ZM697.456 230.156H706.66V232.696H697.456V230.156ZM714.857 223.909L717.499 228.741L720.184 223.909H723.448L719.502 230.455L723.516 237H720.269L717.499 232.287L714.755 237H711.482L715.471 230.455L711.584 223.909H714.857ZM725.834 237V223.909H728.92V237H725.834ZM727.385 222.051C726.897 222.051 726.476 221.889 726.124 221.565C725.772 221.236 725.596 220.841 725.596 220.381C725.596 219.915 725.772 219.52 726.124 219.196C726.476 218.866 726.897 218.702 727.385 218.702C727.88 218.702 728.3 218.866 728.647 219.196C728.999 219.52 729.175 219.915 729.175 220.381C729.175 220.841 728.999 221.236 728.647 221.565C728.3 221.889 727.88 222.051 727.385 222.051ZM737.802 237.256C736.524 237.256 735.416 236.974 734.478 236.412C733.541 235.849 732.814 235.062 732.297 234.051C731.785 233.04 731.53 231.858 731.53 230.506C731.53 229.153 731.785 227.969 732.297 226.952C732.814 225.935 733.541 225.145 734.478 224.582C735.416 224.02 736.524 223.739 737.802 223.739C739.081 223.739 740.189 224.02 741.126 224.582C742.064 225.145 742.788 225.935 743.3 226.952C743.817 227.969 744.075 229.153 744.075 230.506C744.075 231.858 743.817 233.04 743.3 234.051C742.788 235.062 742.064 235.849 741.126 236.412C740.189 236.974 739.081 237.256 737.802 237.256ZM737.819 234.784C738.513 234.784 739.092 234.594 739.558 234.213C740.024 233.827 740.371 233.31 740.598 232.662C740.831 232.014 740.947 231.293 740.947 230.497C740.947 229.696 740.831 228.972 740.598 228.324C740.371 227.67 740.024 227.151 739.558 226.764C739.092 226.378 738.513 226.185 737.819 226.185C737.109 226.185 736.518 226.378 736.047 226.764C735.581 227.151 735.231 227.67 734.998 228.324C734.771 228.972 734.657 229.696 734.657 230.497C734.657 231.293 734.771 232.014 734.998 232.662C735.231 233.31 735.581 233.827 736.047 234.213C736.518 234.594 737.109 234.784 737.819 234.784ZM746.694 237V223.909H749.643V226.134H749.796C750.069 225.384 750.52 224.798 751.151 224.378C751.782 223.952 752.535 223.739 753.41 223.739C754.296 223.739 755.043 223.955 755.651 224.386C756.265 224.812 756.697 225.395 756.947 226.134H757.083C757.373 225.406 757.861 224.827 758.549 224.395C759.242 223.957 760.063 223.739 761.012 223.739C762.216 223.739 763.199 224.119 763.961 224.881C764.722 225.642 765.103 226.753 765.103 228.213V237H762.009V228.69C762.009 227.878 761.793 227.284 761.361 226.909C760.929 226.528 760.401 226.338 759.776 226.338C759.032 226.338 758.449 226.571 758.029 227.037C757.614 227.497 757.407 228.097 757.407 228.835V237H754.381V228.562C754.381 227.886 754.177 227.347 753.768 226.943C753.364 226.54 752.836 226.338 752.182 226.338C751.739 226.338 751.336 226.452 750.972 226.679C750.608 226.901 750.319 227.216 750.103 227.625C749.887 228.028 749.779 228.5 749.779 229.04V237H746.694Z" fill="#09101F"/>
<path d="M129.863 347.597L120.062 337.804L121.673 336.185L131.474 345.986L129.863 347.597ZM121.673 347.597L120.062 345.986L129.863 336.185L131.474 337.804L121.673 347.597Z" fill="#20294F"/>
</g>
<rect x="0.786865" y="0.5" width="1065.67" height="399" stroke="#E0E0E0"/>
<defs>
<filter id="filter0_d_58_3" x="130.166" y="29.6461" width="835.175" height="207.104" filterUnits="userSpaceOnUse" color-interpolation-filters="sRGB">
<feFlood flood-opacity="0" result="BackgroundImageFix"/>
<feColorMatrix in="SourceAlpha" type="matrix" values="0 0 0 0 0 0 0 0 0 0 0 0 0 0 0 0 0 0 127 0" result="hardAlpha"/>
<feOffset dy="4"/>
<feGaussianBlur stdDeviation="16"/>
<feComposite in2="hardAlpha" operator="out"/>
<feColorMatrix type="matrix" values="0 0 0 0 0.1375 0 0 0 0 0.328673 0 0 0 0 1 0 0 0 1 0"/>
<feBlend mode="normal" in2="BackgroundImageFix" result="effect1_dropShadow_58_3"/>
<feBlend mode="normal" in="SourceGraphic" in2="effect1_dropShadow_58_3" result="shape"/>
</filter>
<linearGradient id="paint0_linear_58_3" x1="19.7213" y1="116.647" x2="-2.87256" y2="156.473" gradientUnits="userSpaceOnUse">
<stop stop-color="#6A68FF"/>
<stop offset="1" stop-color="#6C7EFF" stop-opacity="0"/>
</linearGradient>
<linearGradient id="paint1_linear_58_3" x1="-3.64529e+13" y1="177.186" x2="-3.64529e+13" y2="124.542" gradientUnits="userSpaceOnUse">
<stop stop-color="#6A68FF"/>
<stop offset="1" stop-color="#6C7EFF" stop-opacity="0"/>
</linearGradient>
<linearGradient id="paint2_linear_58_3" x1="-3.64529e+13" y1="199.779" x2="-3.64529e+13" y2="147.135" gradientUnits="userSpaceOnUse">
<stop stop-color="#6A68FF"/>
<stop offset="1" stop-color="#6C7EFF" stop-opacity="0"/>
</linearGradient>
<linearGradient id="paint3_linear_58_3" x1="3.64529e+13" y1="-225668" x2="3.64529e+13" y2="-225616" gradientUnits="userSpaceOnUse">
<stop stop-color="#6A68FF"/>
<stop offset="1" stop-color="#6C7EFF" stop-opacity="0"/>
</linearGradient>
<linearGradient id="paint4_linear_58_3" x1="3.64529e+13" y1="-225668" x2="3.64529e+13" y2="-225616" gradientUnits="userSpaceOnUse">
<stop stop-color="#6A68FF"/>
<stop offset="1" stop-color="#6C7EFF" stop-opacity="0"/>
</linearGradient>
<radialGradient id="paint5_radial_58_3" cx="0" cy="0" r="1" gradientUnits="userSpaceOnUse" gradientTransform="translate(533.5 199.694) rotate(90) scale(199.694 269.511)">
<stop stop-color="white"/>
<stop offset="1" stop-color="#D9D9D9" stop-opacity="0"/>
</radialGradient>
<radialGradient id="paint6_radial_58_3" cx="0" cy="0" r="1" gradientUnits="userSpaceOnUse" gradientTransform="translate(798.576 175.773) rotate(172.388) scale(500.774 9223.85)">
<stop stop-color="#0D0F26"/>
<stop offset="0.622778" stop-color="#384382"/>
<stop offset="0.773151" stop-color="#504F79"/>
<stop offset="1" stop-color="#0D0F26"/>
</radialGradient>
<clipPath id="clip0_58_3">
<rect x="0.286865" width="1066.67" height="400" fill="white"/>
</clipPath>
<clipPath id="clip1_58_3">
<rect width="1085" height="458" fill="white" transform="translate(-9 -29)"/>
</clipPath>
</defs>
</svg>
