<svg width="32" height="40" viewBox="0 0 32 40" fill="none" xmlns="http://www.w3.org/2000/svg">
<path fill-rule="evenodd" clip-rule="evenodd" d="M0.28825 24.9389C-0.101619 25.5764 -0.0955847 26.3808 0.303803 27.0124L7.5326 38.4434C8.00176 39.1853 8.90609 39.5236 9.74539 39.2712L30.606 32.9977C31.7444 32.6554 32.3172 31.3823 31.8196 30.3003L18.4094 1.13932C17.7554 -0.282788 15.7839 -0.399522 14.9675 0.935524L0.28825 24.9389ZM18.1058 7.79741C17.8205 7.13653 16.854 7.23832 16.7124 7.94418L11.5428 33.7038C11.4338 34.247 11.9419 34.7108 12.4724 34.5524L26.9042 30.2411C27.3254 30.1153 27.5424 29.6497 27.368 29.2458L18.1058 7.79741Z" fill="white"/>
</svg>